<mxfile host="app.diagrams.net" agent="Mozilla/5.0 (Macintosh; Intel Mac OS X 10_15_7) AppleWebKit/537.36 (KHTML, like Gecko) Chrome/131.0.0.0 Safari/537.36" version="25.0.3">
  <diagram name="Page-1" id="NVKRoj5UJxL1Z3DyudvM">
    <mxGraphModel dx="318" dy="1294" grid="1" gridSize="10" guides="1" tooltips="1" connect="1" arrows="1" fold="1" page="1" pageScale="1" pageWidth="850" pageHeight="1100" math="0" shadow="0">
      <root>
        <mxCell id="0" />
        <mxCell id="1" parent="0" />
        <mxCell id="esX3pQvPka1teSS8RHFQ-19" style="edgeStyle=orthogonalEdgeStyle;rounded=0;orthogonalLoop=1;jettySize=auto;html=1;exitX=0.5;exitY=0.5;exitDx=0;exitDy=0;exitPerimeter=0;entryX=0;entryY=0.5;entryDx=0;entryDy=0;" edge="1" parent="1" source="esX3pQvPka1teSS8RHFQ-1" target="esX3pQvPka1teSS8RHFQ-12">
          <mxGeometry relative="1" as="geometry" />
        </mxCell>
        <mxCell id="esX3pQvPka1teSS8RHFQ-20" style="edgeStyle=orthogonalEdgeStyle;rounded=0;orthogonalLoop=1;jettySize=auto;html=1;exitX=0.5;exitY=0.5;exitDx=0;exitDy=0;exitPerimeter=0;entryX=0;entryY=0.5;entryDx=0;entryDy=0;" edge="1" parent="1" source="esX3pQvPka1teSS8RHFQ-1" target="esX3pQvPka1teSS8RHFQ-13">
          <mxGeometry relative="1" as="geometry" />
        </mxCell>
        <mxCell id="esX3pQvPka1teSS8RHFQ-21" style="edgeStyle=orthogonalEdgeStyle;rounded=0;orthogonalLoop=1;jettySize=auto;html=1;exitX=0.5;exitY=0.5;exitDx=0;exitDy=0;exitPerimeter=0;entryX=0;entryY=0.5;entryDx=0;entryDy=0;" edge="1" parent="1" source="esX3pQvPka1teSS8RHFQ-1" target="esX3pQvPka1teSS8RHFQ-14">
          <mxGeometry relative="1" as="geometry" />
        </mxCell>
        <mxCell id="esX3pQvPka1teSS8RHFQ-22" style="edgeStyle=orthogonalEdgeStyle;rounded=0;orthogonalLoop=1;jettySize=auto;html=1;exitX=0.5;exitY=0.5;exitDx=0;exitDy=0;exitPerimeter=0;" edge="1" parent="1" source="esX3pQvPka1teSS8RHFQ-1" target="esX3pQvPka1teSS8RHFQ-15">
          <mxGeometry relative="1" as="geometry" />
        </mxCell>
        <mxCell id="esX3pQvPka1teSS8RHFQ-23" style="edgeStyle=orthogonalEdgeStyle;rounded=0;orthogonalLoop=1;jettySize=auto;html=1;exitX=0.5;exitY=0.5;exitDx=0;exitDy=0;exitPerimeter=0;entryX=0;entryY=0.5;entryDx=0;entryDy=0;" edge="1" parent="1" source="esX3pQvPka1teSS8RHFQ-1" target="esX3pQvPka1teSS8RHFQ-16">
          <mxGeometry relative="1" as="geometry" />
        </mxCell>
        <mxCell id="esX3pQvPka1teSS8RHFQ-24" style="edgeStyle=orthogonalEdgeStyle;rounded=0;orthogonalLoop=1;jettySize=auto;html=1;exitX=0.5;exitY=0.5;exitDx=0;exitDy=0;exitPerimeter=0;entryX=0;entryY=0.5;entryDx=0;entryDy=0;" edge="1" parent="1" source="esX3pQvPka1teSS8RHFQ-1" target="esX3pQvPka1teSS8RHFQ-17">
          <mxGeometry relative="1" as="geometry" />
        </mxCell>
        <mxCell id="esX3pQvPka1teSS8RHFQ-1" value="Actor" style="shape=umlActor;verticalLabelPosition=bottom;verticalAlign=top;html=1;outlineConnect=0;" vertex="1" parent="1">
          <mxGeometry x="380" y="255" width="30" height="60" as="geometry" />
        </mxCell>
        <mxCell id="esX3pQvPka1teSS8RHFQ-5" style="edgeStyle=orthogonalEdgeStyle;rounded=0;orthogonalLoop=1;jettySize=auto;html=1;" edge="1" parent="1" source="esX3pQvPka1teSS8RHFQ-2" target="esX3pQvPka1teSS8RHFQ-4">
          <mxGeometry relative="1" as="geometry" />
        </mxCell>
        <mxCell id="esX3pQvPka1teSS8RHFQ-6" value="Produces" style="edgeLabel;html=1;align=center;verticalAlign=middle;resizable=0;points=[];" vertex="1" connectable="0" parent="esX3pQvPka1teSS8RHFQ-5">
          <mxGeometry x="0.125" y="1" relative="1" as="geometry">
            <mxPoint as="offset" />
          </mxGeometry>
        </mxCell>
        <mxCell id="esX3pQvPka1teSS8RHFQ-2" value="Data Collection&lt;div&gt;Server&lt;/div&gt;" style="image;html=1;image=img/lib/clip_art/computers/Server_128x128.png" vertex="1" parent="1">
          <mxGeometry x="70" y="250" width="60" height="70" as="geometry" />
        </mxCell>
        <mxCell id="esX3pQvPka1teSS8RHFQ-4" value="PCAPs" style="image;aspect=fixed;html=1;points=[];align=center;fontSize=12;image=img/lib/azure2/general/Files.svg;" vertex="1" parent="1">
          <mxGeometry x="230" y="255" width="54.86" height="60" as="geometry" />
        </mxCell>
        <mxCell id="esX3pQvPka1teSS8RHFQ-10" value="" style="group" vertex="1" connectable="0" parent="1">
          <mxGeometry x="440" y="-150" width="420" height="740" as="geometry" />
        </mxCell>
        <mxCell id="esX3pQvPka1teSS8RHFQ-8" value="" style="rounded=0;whiteSpace=wrap;html=1;fillColor=none;" vertex="1" parent="esX3pQvPka1teSS8RHFQ-10">
          <mxGeometry y="36.393442622950815" width="420" height="703.6065573770492" as="geometry" />
        </mxCell>
        <mxCell id="esX3pQvPka1teSS8RHFQ-9" value="Data Analysis Framework" style="text;html=1;align=center;verticalAlign=middle;resizable=0;points=[];autosize=1;strokeColor=none;fillColor=none;" vertex="1" parent="esX3pQvPka1teSS8RHFQ-10">
          <mxGeometry width="160" height="30" as="geometry" />
        </mxCell>
        <mxCell id="esX3pQvPka1teSS8RHFQ-12" value="Anonymization" style="ellipse;whiteSpace=wrap;html=1;" vertex="1" parent="esX3pQvPka1teSS8RHFQ-10">
          <mxGeometry x="150" y="64.26459016393443" width="120" height="97.04918032786885" as="geometry" />
        </mxCell>
        <mxCell id="esX3pQvPka1teSS8RHFQ-17" value="Summary" style="ellipse;whiteSpace=wrap;html=1;" vertex="1" parent="esX3pQvPka1teSS8RHFQ-10">
          <mxGeometry x="150" y="615.0796721311475" width="120" height="97.04918032786885" as="geometry" />
        </mxCell>
        <mxCell id="esX3pQvPka1teSS8RHFQ-16" value="DataModel" style="ellipse;whiteSpace=wrap;html=1;" vertex="1" parent="esX3pQvPka1teSS8RHFQ-10">
          <mxGeometry x="150" y="504.2581967213114" width="120" height="97.04918032786885" as="geometry" />
        </mxCell>
        <mxCell id="esX3pQvPka1teSS8RHFQ-15" value="PcapProcessing" style="ellipse;whiteSpace=wrap;html=1;" vertex="1" parent="esX3pQvPka1teSS8RHFQ-10">
          <mxGeometry x="150" y="394.2567213114754" width="120" height="97.04918032786885" as="geometry" />
        </mxCell>
        <mxCell id="esX3pQvPka1teSS8RHFQ-14" value="PortExtraction" style="ellipse;whiteSpace=wrap;html=1;" vertex="1" parent="esX3pQvPka1teSS8RHFQ-10">
          <mxGeometry x="150" y="284.25524590163934" width="120" height="97.04918032786885" as="geometry" />
        </mxCell>
        <mxCell id="esX3pQvPka1teSS8RHFQ-13" value="Plot" style="ellipse;whiteSpace=wrap;html=1;" vertex="1" parent="esX3pQvPka1teSS8RHFQ-10">
          <mxGeometry x="150" y="174.26491803278685" width="120" height="97.04918032786885" as="geometry" />
        </mxCell>
        <mxCell id="esX3pQvPka1teSS8RHFQ-34" style="edgeStyle=orthogonalEdgeStyle;rounded=0;orthogonalLoop=1;jettySize=auto;html=1;exitX=0.5;exitY=0.5;exitDx=0;exitDy=0;exitPerimeter=0;" edge="1" parent="1" source="esX3pQvPka1teSS8RHFQ-1" target="esX3pQvPka1teSS8RHFQ-4">
          <mxGeometry relative="1" as="geometry">
            <mxPoint x="300" y="380" as="sourcePoint" />
            <mxPoint x="290" y="290" as="targetPoint" />
          </mxGeometry>
        </mxCell>
        <mxCell id="esX3pQvPka1teSS8RHFQ-35" value="Analyzes" style="edgeLabel;html=1;align=center;verticalAlign=middle;resizable=0;points=[];" vertex="1" connectable="0" parent="esX3pQvPka1teSS8RHFQ-34">
          <mxGeometry x="-0.1622" y="-1" relative="1" as="geometry">
            <mxPoint as="offset" />
          </mxGeometry>
        </mxCell>
      </root>
    </mxGraphModel>
  </diagram>
</mxfile>
